<svg width="1242" height="577" viewBox="0 0 1242 577" fill="none" xmlns="http://www.w3.org/2000/svg">
<path d="M776.356 426C611.754 306.067 808.856 558 690.856 522.5" stroke="#276227" stroke-width="15" stroke-linecap="round"/>
<path d="M677.356 390.5C583.856 405 677.356 506 604.856 499.5" stroke="#276227" stroke-width="15" stroke-linecap="round"/>
<path d="M775.356 331.616C775.356 331.616 918.356 27.6159 970.856 20.116C1025.3 12.3379 993.356 397.976 1007.86 503.476C1012.61 538.097 1080.86 513.976 1080.86 513.976" stroke="#276227" stroke-width="40" stroke-linecap="round"/>
<path d="M775.356 343.116C775.356 343.116 918.356 39.1159 970.856 31.616" stroke="#276227" stroke-width="50" stroke-linecap="round"/>
<path d="M1175.36 362.69C1159.27 404.639 999.535 477 857.4 477C715.266 477 536.365 385.187 524.356 269.419C524.356 219.802 662.512 265.509 788.198 282.988C913.884 300.466 1159.27 310.953 1175.36 362.69Z" fill="white"/>
<path d="M1232.19 293.785C1297.22 305.94 999.892 441 857.8 441C715.709 441 525.356 318.314 525.356 268.711C525.356 219.109 663.193 228.228 788.619 247.044C933.047 268.711 1160.5 280.385 1232.19 293.785Z" fill="#367E4A"/>
<path d="M404.592 238.521C267.391 45.4374 -16.1443 96.9999 171.856 273.5" stroke="#276227" stroke-width="5" stroke-linecap="round"/>
<path d="M511.297 298.585C506.163 325 487.856 345 402.72 354.723C350.114 360.731 293.867 358.606 301.856 317.5C309.845 276.394 379.675 195.764 431.651 205.865C483.627 215.967 519.286 257.479 511.297 298.585Z" fill="#367E4A"/>
<path d="M675.856 416C649.856 449 695.356 544.5 630.048 525.151" stroke="#276227" stroke-width="15" stroke-linecap="round"/>
<path d="M616.856 388C575.356 434.5 624.856 505 552.856 505" stroke="#276227" stroke-width="15" stroke-linecap="round"/>
<path d="M377.856 223.5C167.456 114.7 -129.644 367 67.8558 367" stroke="#276227" stroke-width="5" stroke-linecap="round"/>
<ellipse cx="402.856" cy="271" rx="10.5" ry="11" fill="black"/>
<path d="M871.356 365.64C871.356 365.64 1051.36 105.5 1103.86 98C1158.3 90.2219 1089.36 432 1103.86 537.5C1108.61 572.121 1176.86 548 1176.86 548" stroke="#276227" stroke-width="40" stroke-linecap="round"/>
<path d="M865.356 379C865.356 379 1048.49 115.538 1102.36 108" stroke="#276227" stroke-width="50" stroke-linecap="round"/>
</svg>
